HIERARCHY
ROOT Hips
{
	OFFSET 0.000000 0.000000 0.000000 
	CHANNELS 6 Xposition Yposition Zposition Yrotation Xrotation Zrotation
	JOINT Spine
	{
		OFFSET 0.000000 0.072080 0.012321 
		CHANNELS 3 Xrotation Yrotation Zrotation
		JOINT Spine1
		{
			OFFSET 0.000000 0.126984 -0.001294 
			CHANNELS 3 Xrotation Yrotation Zrotation
			JOINT Spine2
			{
				OFFSET 0.000000 0.106559 -0.010096 
				CHANNELS 3 Xrotation Yrotation Zrotation
				JOINT Neck
				{
					OFFSET 0.000000 0.108417 -0.034017 
					CHANNELS 3 Xrotation Yrotation Zrotation
					JOINT Neck1
					{
						OFFSET 0.000000 0.033906 0.007241 
						CHANNELS 3 Xrotation Yrotation Zrotation
						JOINT Head
						{
							OFFSET 0.000000 0.031458 0.006707 
							CHANNELS 3 Xrotation Yrotation Zrotation
							End Site
							{
								OFFSET 0.000000 0.179920 0.000962 
							}
						}
					}
				}
				JOINT LeftShoulder
				{
					OFFSET 0.048002 0.079586 -0.029634 
					CHANNELS 3 Zrotation Xrotation Yrotation
					JOINT LeftArm
					{
						OFFSET 0.096243 -0.008695 -0.014012 
						CHANNELS 3 Zrotation Xrotation Yrotation
						JOINT LeftForeArm
						{
							OFFSET 0.216305 0.000000 0.000000 
							CHANNELS 3 Xrotation Zrotation Yrotation
							JOINT LeftHand
							{
								OFFSET 0.217764 0.000000 0.000000 
								CHANNELS 3 Zrotation Yrotation Xrotation
								JOINT LeftHandThumb1
								{
									OFFSET 0.018582 -0.007835 0.020476 
									CHANNELS 3 Zrotation Xrotation Yrotation
									JOINT LeftHandThumb2
									{
										OFFSET 0.026269 -0.007835 0.022186 
										CHANNELS 3 Zrotation Xrotation Yrotation
										JOINT LeftHandThumb3
										{
											OFFSET 0.035170 -0.010504 0.017018 
											CHANNELS 3 Zrotation Xrotation Yrotation
											End Site
											{
												OFFSET 0.020312 -0.007813 0.007813 
											}
										}
									}
								}
								JOINT LeftHandMiddle1
								{
									OFFSET 0.081749 0.004803 0.003358 
									CHANNELS 3 Zrotation Xrotation Yrotation
									JOINT LeftHandMiddle2
									{
										OFFSET 0.045251 0.000000 0.000000 
										CHANNELS 3 Zrotation Xrotation Yrotation
										JOINT LeftHandMiddle3
										{
											OFFSET 0.029009 0.000000 0.000000 
											CHANNELS 3 Zrotation Xrotation Yrotation
											End Site
											{
												OFFSET 0.017969 0.000000 0.000000 
											}
										}
									}
								}
								JOINT LeftHandIndex1
								{
									OFFSET 0.081207 0.004803 0.021137 
									CHANNELS 3 Zrotation Xrotation Yrotation
									JOINT LeftHandIndex2
									{
										OFFSET 0.043354 0.000000 0.000000 
										CHANNELS 3 Zrotation Xrotation Yrotation
										JOINT LeftHandIndex3
										{
											OFFSET 0.026493 0.000000 0.000000 
											CHANNELS 3 Zrotation Xrotation Yrotation
											End Site
											{
												OFFSET 0.019531 0.000000 0.000000 
											}
										}
									}
								}
								JOINT LeftHandRing1
								{
									OFFSET 0.080666 0.002509 -0.014652 
									CHANNELS 3 Zrotation Xrotation Yrotation
									JOINT LeftHandRing2
									{
										OFFSET 0.042541 0.000000 0.000000 
										CHANNELS 3 Zrotation Xrotation Yrotation
										JOINT LeftHandRing3
										{
											OFFSET 0.029009 0.000000 0.000000 
											CHANNELS 3 Zrotation Xrotation Yrotation
											End Site
											{
												OFFSET 0.015625 0.000000 0.000000 
											}
										}
									}
								}
								JOINT LeftHandPinky1
								{
									OFFSET 0.078227 -0.000612 -0.030993 
									CHANNELS 3 Zrotation Xrotation Yrotation
									JOINT LeftHandPinky2
									{
										OFFSET 0.028721 0.000000 0.000000 
										CHANNELS 3 Zrotation Xrotation Yrotation
										JOINT LeftHandPinky3
										{
											OFFSET 0.021963 0.000000 0.000000 
											CHANNELS 3 Zrotation Xrotation Yrotation
											End Site
											{
												OFFSET 0.022656 0.000000 0.000000 
											}
										}
									}
								}
							}
						}
					}
				}
				JOINT RightShoulder
				{
					OFFSET -0.047970 0.079586 -0.029634 
					CHANNELS 3 Zrotation Xrotation Yrotation
					JOINT RightArm
					{
						OFFSET -0.096274 -0.008695 -0.014012 
						CHANNELS 3 Zrotation Xrotation Yrotation
						JOINT RightForeArm
						{
							OFFSET -0.216305 0.000000 0.000000 
							CHANNELS 3 Xrotation Zrotation Yrotation
							JOINT RightHand
							{
								OFFSET -0.217764 0.000000 0.000000 
								CHANNELS 3 Zrotation Yrotation Xrotation
								JOINT RightHandThumb1
								{
									OFFSET -0.019670 -0.007318 0.019638 
									CHANNELS 3 Zrotation Xrotation Yrotation
									JOINT RightHandThumb2
									{
										OFFSET -0.025498 -0.008492 0.023179 
										CHANNELS 3 Zrotation Xrotation Yrotation
										JOINT RightHandThumb3
										{
											OFFSET -0.034504 -0.010705 0.016680 
											CHANNELS 3 Zrotation Xrotation Yrotation
											End Site
											{
												OFFSET -0.020312 -0.007813 0.007813 
											}
										}
									}
								}
								JOINT RightHandIndex1
								{
									OFFSET -0.081770 0.003825 0.021187 
									CHANNELS 3 Zrotation Xrotation Yrotation
									JOINT RightHandIndex2
									{
										OFFSET -0.042006 0.000000 0.000000 
										CHANNELS 3 Zrotation Xrotation Yrotation
										JOINT RightHandIndex3
										{
											OFFSET -0.026449 0.000000 0.000000 
											CHANNELS 3 Zrotation Xrotation Yrotation
											End Site
											{
												OFFSET -0.020312 0.000000 0.000000 
											}
										}
									}
								}
								JOINT RightHandMiddle1
								{
									OFFSET -0.084059 0.003825 0.003342 
									CHANNELS 3 Zrotation Xrotation Yrotation
									JOINT RightHandMiddle2
									{
										OFFSET -0.043881 0.000000 0.000000 
										CHANNELS 3 Zrotation Xrotation Yrotation
										JOINT RightHandMiddle3
										{
											OFFSET -0.029191 0.000000 0.000000 
											CHANNELS 3 Zrotation Xrotation Yrotation
											End Site
											{
												OFFSET -0.017969 0.000000 0.000000 
											}
										}
									}
								}
								JOINT RightHandRing1
								{
									OFFSET -0.081798 0.003030 -0.015127 
									CHANNELS 3 Zrotation Xrotation Yrotation
									JOINT RightHandRing2
									{
										OFFSET -0.042198 0.000000 0.000000 
										CHANNELS 3 Zrotation Xrotation Yrotation
										JOINT RightHandRing3
										{
											OFFSET -0.026497 0.000000 0.000000 
											CHANNELS 3 Zrotation Xrotation Yrotation
											End Site
											{
												OFFSET -0.017188 0.000000 0.000000 
											}
										}
									}
								}
								JOINT RightHandPinky1
								{
									OFFSET -0.077902 -0.000930 -0.030891 
									CHANNELS 3 Zrotation Xrotation Yrotation
									JOINT RightHandPinky2
									{
										OFFSET -0.028538 0.000000 0.000000 
										CHANNELS 3 Zrotation Xrotation Yrotation
										JOINT RightHandPinky3
										{
											OFFSET -0.021734 0.000000 0.000000 
											CHANNELS 3 Zrotation Xrotation Yrotation
											End Site
											{
												OFFSET -0.022656 0.000000 0.000000 
											}
										}
									}
								}
							}
						}
					}
				}
			}
		}
	}
	JOINT LeftUpLeg
	{
		OFFSET 0.075264 -0.025573 0.000000 
		CHANNELS 3 Xrotation Yrotation Zrotation
		JOINT LeftLeg
		{
			OFFSET 0.000000 -0.326016 -0.013516 
			CHANNELS 3 Xrotation Yrotation Zrotation
			JOINT LeftFoot
			{
				OFFSET 0.000098 -0.306172 -0.006623 
				CHANNELS 3 Xrotation Yrotation Zrotation
				JOINT LeftToeBase
				{
					OFFSET -0.001432 -0.095259 0.064705 
					CHANNELS 3 Xrotation Yrotation Zrotation
					End Site
					{
						OFFSET 0.000000 0.000000 0.079438 
					}
				}
			}
		}
	}
	JOINT RightUpLeg
	{
		OFFSET -0.075264 -0.025573 0.000000 
		CHANNELS 3 Xrotation Yrotation Zrotation
		JOINT RightLeg
		{
			OFFSET 0.000000 -0.326016 -0.013516 
			CHANNELS 3 Xrotation Yrotation Zrotation
			JOINT RightFoot
			{
				OFFSET 0.000098 -0.306172 -0.006623 
				CHANNELS 3 Xrotation Yrotation Zrotation
				JOINT RightToeBase
				{
					OFFSET -0.001432 -0.095259 0.064705 
					CHANNELS 3 Xrotation Yrotation Zrotation
					End Site
					{
						OFFSET 0.000025 0.000000 0.079438 
					}
				}
			}
		}
	}
}
MOTION
Frames: 4
Frame Time: 0.033333
-0.006184 0.641161 -0.001760 -7.279600 9.866200 -10.652800 1.879500 3.888200 19.232700 3.189200 0.673200 -4.455900 3.243100 0.689300 -4.426700 16.182301 0.231600 -0.326600 -0.000000 0.000000 -0.000000 -27.641300 -0.485000 -2.240900 5.628900 0.613700 -4.412600 -79.480797 32.337399 35.605099 0.000000 -0.000000 -49.960800 12.023400 -25.607201 -19.353500 -2.213700 8.981200 -1.761100 -0.003300 0.001800 4.674300 13.011500 -8.127600 -4.175100 -8.233400 0.000300 3.781300 -26.197500 0.001500 -0.006600 -4.251500 0.000000 -0.001100 10.792700 -4.976000 -2.643500 -24.489201 0.001400 -0.006200 -13.600400 0.000400 -0.003500 -18.258699 1.125800 2.816900 -21.808800 0.001100 -0.005600 -24.870399 0.001400 -0.006300 -23.905701 -3.744300 7.910300 -15.701600 0.000600 -0.004100 -19.226500 0.000800 -0.004900 9.883100 0.382500 -2.700000 65.876602 6.447900 45.164299 -0.000000 0.000000 73.634598 9.218500 6.061700 -8.075800 -4.747700 -28.012300 -9.339500 0.002400 0.001300 -10.417100 -16.117201 -6.494100 0.936300 -5.362500 -0.000000 -0.000400 13.563300 0.000200 0.001800 6.819100 0.000100 0.000900 5.107300 -0.050500 -1.977100 23.727900 0.000700 0.003200 11.586900 0.000200 0.001600 6.409600 -0.195500 -6.207700 32.903500 0.001300 0.004300 14.191200 0.000200 0.001900 7.097300 1.234600 -2.099600 20.121599 0.000500 0.002700 17.021900 0.000300 0.002300 -62.762402 -6.087600 -3.526000 147.904907 5.879700 -1.135200 18.599300 -2.393900 -17.816999 9.207600 -0.000000 0.000000 -18.878500 -9.487400 0.880400 63.382099 -0.760700 10.825700 -11.175600 13.092200 -7.373100 -36.756699 0.000000 -0.000000 
-0.000771 0.688709 0.154730 -19.470600 6.646300 -1.585200 3.861300 20.977400 7.137500 2.561300 2.679800 -6.712700 2.758600 2.415000 -6.795600 13.735700 -1.165300 -3.717700 -0.000000 0.000000 -0.000000 -20.834400 -9.032200 -4.595700 5.085700 0.646700 0.135000 -70.762703 25.711800 33.123501 -0.000000 -0.000000 -29.384800 -5.918500 -19.549801 8.970600 -3.390200 9.122500 0.560100 -0.001700 0.001500 4.668100 11.925500 -6.366700 -2.103000 -4.713100 0.618100 3.015200 -23.068701 0.001200 -0.005900 -1.747200 0.000000 -0.000500 12.650500 -4.962600 -1.153200 -23.667299 0.001300 -0.006000 -14.466000 0.000500 -0.003700 -13.818800 1.606100 4.218500 -21.913200 0.001100 -0.005600 -22.919701 0.001200 -0.005900 -16.791000 -1.458000 9.680300 -18.083000 0.000700 -0.004700 -16.431400 0.000600 -0.004300 3.361500 -0.521600 0.335000 53.063301 -5.832300 55.478001 0.000000 -0.000100 76.660698 24.754200 1.708300 1.435600 -3.505300 -25.134199 -8.562500 -0.306200 -0.526800 -8.183600 -15.752200 -5.687800 2.145400 -4.826500 0.000000 -0.000300 14.517600 0.000300 0.002000 7.773400 0.000100 0.001100 5.304200 -0.653200 -2.222100 22.801201 0.000600 0.003100 10.660200 0.000200 0.001500 6.927700 0.063400 -6.431800 30.935600 0.001100 0.004100 12.223400 0.000200 0.001700 8.940600 1.262100 -1.968500 19.609301 0.000500 0.002600 16.509501 0.000300 0.002300 -97.273102 -21.914900 -4.282500 139.378006 -4.672700 -1.591200 39.543201 -5.135100 -20.714701 11.833200 -0.000000 0.000000 1.911800 -11.004900 -13.289100 33.575500 -1.407200 5.603200 11.825800 24.593599 -11.587600 -39.434200 0.000000 -0.000000 
-0.009789 0.755573 0.270137 -23.018600 5.790100 9.857500 12.442200 32.140701 -10.714100 3.894300 4.051500 -7.954600 4.223500 3.759100 -7.990300 8.817300 -1.905500 -7.611100 -0.000000 0.000000 -0.000000 -9.833100 -18.702200 -2.771700 2.553700 0.327200 5.708500 -51.514801 17.292000 29.699499 0.000000 0.000000 -20.220800 -12.428500 -9.563800 38.842499 -4.929200 6.886700 2.592700 0.000800 0.000900 4.658400 9.631600 -5.494700 -2.088500 -3.145300 1.509700 2.756300 -22.029600 0.001100 -0.005600 -0.915500 0.000000 -0.000200 14.039100 -4.940600 0.479000 -23.283300 0.001200 -0.005900 -16.338100 0.000600 -0.004200 -11.399900 2.192000 5.880700 -22.265600 0.001100 -0.005700 -20.976000 0.001000 -0.005400 -9.363900 0.376500 11.069600 -20.910999 0.001000 -0.005400 -13.538000 0.000400 -0.003500 -2.064200 -1.192700 0.797400 35.543701 -21.885599 59.033001 0.000000 -0.000000 75.030998 32.917702 -2.090100 2.993800 -1.511300 -20.242100 -7.406800 -0.232700 -0.393900 -8.727200 -15.178200 -4.407000 4.764100 1.216100 0.000000 0.000500 15.380000 0.000300 0.002100 8.635800 0.000100 0.001200 11.320800 -1.363400 -2.612000 22.772499 0.000600 0.003100 10.631500 0.000100 0.001500 12.299900 0.157500 -5.068600 32.158100 0.001200 0.004200 13.445900 0.000200 0.001800 18.242100 0.934800 -0.820700 20.017900 0.000500 0.002700 16.918100 0.000400 0.002300 -100.325897 -24.542101 -5.166200 114.661201 1.255900 0.404900 31.605301 -0.674600 -9.723000 10.068300 0.000000 0.000000 0.047400 -18.071301 -24.856899 25.606501 -0.798600 0.790400 24.641600 26.958900 -14.034400 -23.366501 0.000000 -0.000000 
-0.018106 0.810168 0.369816 -20.488501 5.457700 17.438200 22.452700 32.377499 -24.775000 4.575500 4.502600 -6.718700 4.836800 4.398800 -6.635500 1.920900 -1.277300 -10.965200 -0.000000 0.000000 -0.000000 4.529600 -23.616199 7.231400 -0.125000 -0.376700 9.954200 -26.955999 5.007600 31.319901 -0.000000 0.000000 -27.176300 -4.147900 -0.618000 51.664101 -6.528900 3.791600 3.837900 -0.006600 0.002600 4.687200 7.753400 -6.814000 -6.419200 -2.265300 2.328800 2.717200 -20.365000 0.000900 -0.005200 0.416900 0.000000 0.000100 15.240800 -4.925900 1.826900 -21.445700 0.001000 -0.005500 -16.897600 0.000700 -0.004400 -9.329300 2.630900 7.219400 -21.268299 0.001000 -0.005500 -18.254101 0.000800 -0.004700 -3.883700 1.318800 12.130900 -22.174200 0.001100 -0.005700 -10.169700 0.000200 -0.002700 -4.834100 -0.718500 -0.059300 6.874800 -35.148800 43.665298 0.000000 -0.000000 61.598701 24.016199 3.321000 -4.443500 1.766200 -10.177900 -5.523200 -0.102800 -0.172200 -9.665900 -14.658000 -2.724500 7.744200 7.797500 0.000100 0.001400 17.948299 0.000400 0.002400 11.204100 0.000100 0.001500 14.993800 -2.102300 -3.185800 23.867001 0.000700 0.003200 11.726100 0.000200 0.001600 13.986600 0.124300 -4.002500 34.532501 0.001400 0.004500 15.820300 0.000300 0.002200 24.061100 1.195800 -1.294300 20.146999 0.000500 0.002700 17.047300 0.000300 0.002300 -96.777702 -19.426201 -4.864700 93.071404 9.096700 3.446000 9.853100 0.685700 6.419900 11.287300 -0.000000 0.000000 -0.821800 -21.141600 -27.167000 22.517500 1.538500 -2.498800 30.062799 18.008200 -3.610100 -12.437900 -0.000000 0.000000 
